<svg xmlns="http://www.w3.org/2000/svg" viewBox="0 0 24 24" width="24" height="24" role="img" aria-label="LyZ toolbar icon colored">
  <title>LyZ toolbar icon colored</title>
  <path fill="#2f7de1" d="M3.8 4.2h2.4v12.9h5.7v2.2H3.8z"/>
  <path fill="#d99a00" d="M9.1 8.1h2.55l2.05 6.15 2.05-6.15h2.45l-4.15 11.55c-.33.92-.77 1.58-1.33 1.98-.56.4-1.28.6-2.16.6-.35 0-.72-.03-1.12-.1v-2.03c.25.04.5.06.75.06.43 0 .77-.1 1.02-.31.25-.21.46-.58.63-1.11l.18-.55z"/>
  <path fill="#c94f2c" d="M15.5 4.2h7.1v2.05l-4.35 10.85h4.45v2.2h-7.5v-2.05l4.36-10.85H15.5z"/>
</svg>
